<svg xmlns="http://www.w3.org/2000/svg" xmlns:xlink="http://www.w3.org/1999/xlink" xml:space="preserve" viewBox="0 0 511.985 511.985"><defs><linearGradient xlink:href="#a" id="f" x1=".465" x2=".557" y1="-.674" y2=".811" gradientTransform="matrix(231.62575 0 0 231.62472 111.11 159.994)" gradientUnits="userSpaceOnUse"/><linearGradient id="a"><stop offset="0" style="stop-color:#1972e7"/><stop offset="1" style="stop-color:#1969d5"/></linearGradient><linearGradient xlink:href="#b" id="e" x1="101.744" x2="101.599" y1="33.726" y2="135.466" gradientTransform="matrix(3.77942 0 0 3.7794 .002 .004)" gradientUnits="userSpaceOnUse"/><linearGradient id="b" x2="1" gradientTransform="translate(29.399 42.333) scale(61.286)" gradientUnits="userSpaceOnUse"><stop offset="0" style="stop-color:#afccfb"/><stop offset="1" style="stop-color:#8bb5f8"/></linearGradient><linearGradient xlink:href="#c" id="g" x1=".018" x2="1.77" y1="-.512" y2=".499" gradientTransform="matrix(94.93156 164.42687 -164.4276 94.93114 97.556 173.61)" gradientUnits="userSpaceOnUse"/><linearGradient id="c" x2="1" gradientTransform="scale(50.236) rotate(60 -.535 .902)" gradientUnits="userSpaceOnUse"><stop offset="0" style="stop-color:#659cf6"/><stop offset="1" style="stop-color:#4285f4"/></linearGradient><linearGradient xlink:href="#d" id="h" x1="67.452" x2="67.733" y1="40.321" y2="95.25" gradientTransform="matrix(3.77942 0 0 3.7794 .002 .004)" gradientUnits="userSpaceOnUse"/><linearGradient id="d"><stop offset="0" style="stop-color:#3680f0"/><stop offset="1" style="stop-color:#2678ec"/></linearGradient></defs><path d="m255.993 255.994 110.85 63.997-110.85 191.994c141.38 0 255.992-114.61 255.992-255.99 0-46.642-12.536-90.332-34.331-127.998H255.99z" style="fill:url(#e)"/><path d="M255.99 0C161.24 0 78.578 51.513 34.313 128.027L145.14 319.991l110.85-63.997V127.997h221.664C433.382 51.502 350.729 0 255.99 0Z" style="fill:url(#f)"/><path d="M.002 255.994c0 141.38 114.607 255.99 255.991 255.99l110.85-191.993-110.85-63.997-110.85 63.997L34.315 128.027C12.53 165.682 0 209.357 0 255.991" style="fill:url(#g)"/><path fill="#fff" d="M383.99 255.994c0 70.69-57.306 127.997-127.997 127.997-70.69 0-127.998-57.307-127.998-127.997s57.308-127.997 127.998-127.997 127.998 57.307 127.998 127.997"/><path d="M359.992 255.994c0 57.436-46.563 103.998-103.999 103.998-57.436 0-103.998-46.562-103.998-103.998 0-57.435 46.562-103.998 103.998-103.998 57.436 0 103.999 46.563 103.999 103.998" style="fill:url(#h)"/><g style="opacity:.9"><path fill-rule="evenodd" d="m292.553 78.832 16.852 16.992L193.16 213.79V95.824h11.282l16.852-16.992V33.986l-16.852-16.992H17.067L.214 33.986v44.846l16.853 16.992h13.14v382.318l20.564 16.853h58.127L511.772 78.832V33.986L494.92 16.994H311.265l-18.712 16.992v44.846"/><path fill="none" stroke="#000" stroke-miterlimit="2.613" stroke-width=".42844248" d="m292.553 78.832 16.852 16.992L193.16 213.79V95.824h11.282l16.852-16.992V33.986l-16.852-16.992H17.067L.214 33.986v44.846l16.853 16.992h13.14v382.318l20.564 16.853h58.127L511.772 78.832V33.986L494.92 16.994H311.265l-18.712 16.992zm0 0"/><path fill="#fff" fill-rule="evenodd" d="M22.637 84.543 11.357 73.26V39.557l11.28-11.282 176.233-.14 11.142 11.422-11.142 5.431-5.71-5.431L22.636 67.55v16.992"/><path fill="none" stroke="#000" stroke-miterlimit="2.613" stroke-width=".42844248" d="M22.637 84.543 11.357 73.26V39.557l11.28-11.282 176.233-.14 11.142 11.422-11.142 5.431-5.71-5.431L22.636 67.55zm0 0"/><path fill="#fff" fill-rule="evenodd" d="m56.342 483.713-13.14-11.281V84.403l13.14-11.142v410.452"/><path fill="none" stroke="#000" stroke-miterlimit="2.613" stroke-width=".42844248" d="m56.342 483.713-13.14-11.281V84.403l13.14-11.142zm0 0"/><path fill="#fff" fill-rule="evenodd" d="M337.539 84.543 348.82 73.26v22.563L161.307 286.91l20.71-44.986L337.54 84.543"/><path fill="none" stroke="#000" stroke-miterlimit="2.613" stroke-width=".42844248" d="M337.539 84.543 348.82 73.26v22.563L161.307 286.91l20.71-44.986zm0 0"/><path fill="#7f7f7f" fill-rule="evenodd" d="m60.193 67.69-3.851 5.571-13.14 11.282H22.636V61.98l37.556 5.71"/><path fill="none" stroke="#000" stroke-miterlimit="2.613" stroke-width=".42844248" d="m60.193 67.69-3.851 5.571-13.14 11.282H22.636V61.98zm0 0"/><path fill="#7f7f7f" fill-rule="evenodd" d="M182.017 84.543v157.38l-20.71 44.847V73.122h31.852l5.71-5.571-5.71-27.994h16.853V73.26L198.87 84.543h-16.853"/><path fill="none" stroke="#000" stroke-miterlimit="2.613" stroke-width=".42844248" d="M182.017 84.543v157.38l-20.71 44.847V73.122h31.852l5.71-5.571-5.71-27.994h16.853V73.26L198.87 84.543zm0 0"/><path fill="#fff" fill-rule="evenodd" d="M314.976 84.543 303.834 73.26V39.557l13.002-11.282h170.661l13.141 11.282-18.851 16.852-166.81 11.142v16.992"/><path fill="none" stroke="#000" stroke-miterlimit="2.613" stroke-width=".42844248" d="M314.976 84.543 303.834 73.26V39.557l13.002-11.282h170.661l13.141 11.282-18.851 16.852-166.81 11.142zm0 0"/><path fill="#7f7f7f" fill-rule="evenodd" d="M500.638 73.261 105.039 483.713H56.342v-16.852h35.704L487.497 61.98l-5.71-22.423h18.851V73.26"/><path fill="none" stroke="#000" stroke-miterlimit="2.613" stroke-width=".42844248" d="M500.638 73.261 105.039 483.713H56.342v-16.852h35.704L487.497 61.98l-5.71-22.423h18.851zm0 0"/><path fill="#7f7f7f" fill-rule="evenodd" d="m352.54 67.69-3.86 5.571-11.141 11.282h-22.563V61.98l37.563 5.71"/><path fill="none" stroke="#000" stroke-miterlimit="2.613" stroke-width=".42844248" d="m352.54 67.69-3.86 5.571-11.141 11.282h-22.563V61.98zm0 0"/><path fill="#ccc" fill-rule="evenodd" d="M161.307 286.77V73.122h31.852l5.71-5.571V44.988l-5.71-5.57H28.21l-5.572 5.57v22.563l5.571 5.57h28.134v393.74l7.283 5.571h32.132L489.349 61.98V45.84l-5.71-6.423H320.687l-5.71 5.571V67.69l5.71 5.571h28.133v22.563L161.307 286.77"/><path fill="none" stroke="#000" stroke-miterlimit="2.613" stroke-width=".42844248" d="M161.307 286.77V73.122h31.852l5.71-5.571V44.988l-5.71-5.57H28.21l-5.572 5.57v22.563l5.571 5.57h28.134v393.74l7.283 5.571h32.132L489.349 61.98V45.84l-5.71-6.423H320.687l-5.71 5.571V67.69l5.71 5.571h28.133v22.563zm0 0"/></g></svg>